<?xml version="1.0" encoding="UTF-8" standalone="no"?>
<!-- Created with Inkscape (http://www.inkscape.org/) -->

<svg
   version="1.1"
   id="svg2"
   width="260.97333"
   height="120.58667"
   viewBox="0 0 260.97333 120.58667"
   xmlns="http://www.w3.org/2000/svg"
   xmlns:svg="http://www.w3.org/2000/svg">
  <defs
     id="defs6" />
  <g
     id="g8"
     transform="matrix(1.3333333,0,0,-1.3333333,0,120.58667)">
    <g
       id="g10"
       transform="scale(0.1)">
      <path
         d="M 1223.2,203.746 H 1009.45 L 755.41,476.984 v 156.067 l 246.31,272.441 h 219.94 L 938.203,552.305 1223.2,203.746"
         style="fill:#000000;fill-opacity:1;fill-rule:nonzero;stroke:none"
         id="path12" />
      <path
         d="m 1255.67,203.855 h 192.07 V 904 h -192.07 z"
         style="fill:#000000;fill-opacity:1;fill-rule:nonzero;stroke:none"
         id="path14" />
      <path
         d="M 1957.31,904.98 H 1494.16 V 746.719 h 135.54 v -543.52 h 192.07 v 543.52 h 135.54 V 904.98"
         style="fill:#000000;fill-opacity:1;fill-rule:nonzero;stroke:none"
         id="path16" />
      <path
         d="m 709.523,203.813 -0.109,0.226 v -0.098 l 0.109,-0.128"
         style="fill:#000000;fill-opacity:1;fill-rule:nonzero;stroke:none"
         id="path18" />
      <path
         d="m 709.414,203.879 v 0.062 l -0.023,0.032 0.023,-0.094"
         style="fill:#000000;fill-opacity:1;fill-rule:nonzero;stroke:none"
         id="path20" />
      <path
         d="M 161.211,648.41 C 124.453,603.922 93.1289,554.805 68.082,502.125 L 709.41,203.75 161.211,648.41"
         style="fill:#009682;fill-opacity:1;fill-rule:nonzero;stroke:none"
         id="path22" />
      <path
         d="m 709.336,204.055 -299.25,635.894 c -52.801,-24.328 -102.074,-54.957 -146.848,-91 l 446.16,-545.133 -0.062,0.239"
         style="fill:#009682;fill-opacity:1;fill-rule:nonzero;stroke:none"
         id="path24" />
      <path
         d="m 709.391,203.973 0.023,-0.032 v 0.098 l -0.086,0.18 0.063,-0.246"
         style="fill:#000000;fill-opacity:1;fill-rule:nonzero;stroke:none"
         id="path26" />
      <path
         d="m 709.391,203.973 0.023,-0.032 v 0.098 l -0.086,0.18 0.063,-0.246"
         style="fill:#000000;fill-opacity:1;fill-rule:nonzero;stroke:none"
         id="path28" />
      <path
         d="M 22.1719,375.523 C 8.08984,320.574 0.527344,263.016 0.234375,203.734 H 709.191 L 22.1719,375.523"
         style="fill:#009682;fill-opacity:1;fill-rule:nonzero;stroke:none"
         id="path30" />
      <path
         d="m 709.422,203.879 0.328,700.43 c -1.77,0.011 -3.52,0.132 -5.293,0.132 -57.098,0 -112.539,-6.961 -165.691,-19.789 l 170.57,-680.597 0.086,-0.176"
         style="fill:#000000;fill-opacity:1;fill-rule:nonzero;stroke:none"
         id="path32" />
      <path
         d="M 0,118.922 H 12.8086 V 79.6172 L 50.9727,118.922 H 68.0039 L 26,76.6563 71.332,29.5313 H 52.6367 L 12.8086,73.3359 V 29.5313 H 0 v 89.3907"
         style="fill:#000000;fill-opacity:1;fill-rule:nonzero;stroke:none"
         id="path34" />
      <path
         d="m 121.281,60.6523 c -2.566,0 -5.125,0.2618 -7.687,0.2618 -6.528,0 -22.6682,-1.0352 -22.6682,-12.5664 0,-6.8985 6.6562,-10.6172 12.1682,-10.6172 11.906,0 18.187,7.4297 18.187,17.1601 z M 85.5508,90.2305 c 6.0156,3.5937 13.1914,6.1445 21.5152,6.1445 18.696,0 26.254,-9.2109 26.254,-27.0117 V 42.3398 c 0,-7.4296 0.254,-10.8906 0.508,-12.8085 h -11.273 v 8.457 h -0.254 C 119.488,34.0195 113.082,28 102.066,28 87.9844,28 78.1211,34.1406 78.1211,48.3477 c 0,16.4062 17.9219,21.5234 30.3519,21.5234 4.734,0 8.066,0 12.808,-0.2539 0,11.2773 -4.105,17.0312 -16.14,17.0312 -6.7816,0 -14.0824,-2.5586 -18.9535,-6.6523 l -0.6367,10.2344"
         style="fill:#000000;fill-opacity:1;fill-rule:nonzero;stroke:none"
         id="path36" />
      <path
         d="m 152.816,94.8516 h 11.27 V 84.7227 h 0.254 c 3.203,6.789 10.117,11.6523 17.035,11.6523 3.59,0 5.383,-0.3711 7.938,-0.8906 V 84.7227 c -2.168,0.8984 -4.606,1.164 -6.657,1.164 -10.758,0 -17.801,-10.2461 -17.801,-26.6367 V 29.5313 h -12.039 v 65.3203"
         style="fill:#000000;fill-opacity:1;fill-rule:nonzero;stroke:none"
         id="path38" />
      <path
         d="m 202.633,29.5313 h 12.0352 v 96.0508 H 202.633 Z"
         style="fill:#000000;fill-opacity:1;fill-rule:nonzero;stroke:none"
         id="path40" />
      <path
         d="m 232.023,42.3398 c 4.739,-3.0703 11.532,-4.6093 14.985,-4.6093 5.5,0 12.293,2.3086 12.293,9.3398 0,11.9102 -28.301,10.8985 -28.301,29.207 0,13.5743 10.113,20.0977 23.047,20.0977 5.641,0 10.246,-1.1445 14.992,-2.5508 l -1.031,-10.4961 c -2.684,1.6602 -9.86,3.3203 -12.676,3.3203 -6.152,0 -11.523,-2.5586 -11.523,-7.9414 0,-13.3086 28.3,-9.4804 28.3,-30.3593 C 272.109,34.3984 260.965,28 249.316,28 c -6.152,0 -12.425,0.6289 -17.933,3.5898 l 0.64,10.75"
         style="fill:#000000;fill-opacity:1;fill-rule:nonzero;stroke:none"
         id="path42" />
      <path
         d="M 286.707,94.8516 H 297.98 V 84.7227 h 0.254 c 3.2,6.789 10.11,11.6523 17.036,11.6523 3.582,0 5.378,-0.3711 7.933,-0.8906 V 84.7227 c -2.172,0.8984 -4.605,1.164 -6.656,1.164 -10.754,0 -17.801,-10.2461 -17.801,-26.6367 V 29.5313 h -12.039 v 65.3203"
         style="fill:#000000;fill-opacity:1;fill-rule:nonzero;stroke:none"
         id="path44" />
      <path
         d="m 393.516,29.5313 h -11.649 v 10.3671 h -0.262 C 378.016,32.4805 369.313,28 360.219,28 343.316,28 335.758,38.4883 335.758,56.0391 v 38.8125 h 12.035 V 61.043 c 0,-15.2344 3.336,-22.6641 13.832,-23.3125 13.707,0 19.855,11.0078 19.855,26.8945 v 30.2266 h 12.036 V 29.5313"
         style="fill:#000000;fill-opacity:1;fill-rule:nonzero;stroke:none"
         id="path46" />
      <path
         d="m 413.336,125.582 h 12.039 V 85.4961 h 0.258 c 4.351,6.9141 11.91,10.8789 21.004,10.8789 16.906,0 24.461,-10.4883 24.461,-28.0391 V 29.5313 h -12.039 v 33.8046 c 0,15.2344 -3.325,22.668 -13.829,23.3125 -13.707,0 -19.855,-11.0078 -19.855,-26.8945 V 29.5313 h -12.039 v 96.0507"
         style="fill:#000000;fill-opacity:1;fill-rule:nonzero;stroke:none"
         id="path48" />
      <path
         d="m 533.512,68.4727 c 0,9.9804 -5.887,18.1757 -16.262,18.1757 -11.781,0 -16.648,-9.7265 -17.543,-18.1757 z m 7.812,-36.2539 C 536.719,30.5508 531.465,28 520.711,28 c -23.18,0 -33.813,14.0898 -33.813,35.3359 0,19.3477 12.165,33.0391 30.606,33.0391 21.773,0 28.82,-15.8711 28.82,-36.8867 h -46.617 c 0,-12.9297 10.117,-21.7578 21.512,-21.7578 7.945,0 17.164,4.0976 20.105,6.5273 v -12.039"
         style="fill:#000000;fill-opacity:1;fill-rule:nonzero;stroke:none"
         id="path50" />
      <path
         d="m 599.207,29.5313 h 12.8086 v 89.3906 H 599.207 Z"
         style="fill:#000000;fill-opacity:1;fill-rule:nonzero;stroke:none"
         id="path52" />
      <path
         d="m 633.145,94.8516 h 11.656 V 84.4805 h 0.262 c 3.585,7.4218 12.292,11.8945 21.382,11.8945 16.903,0 24.465,-10.4883 24.465,-28.0391 V 29.5313 h -12.043 v 33.8046 c 0,15.2344 -3.324,22.668 -13.828,23.3125 -13.707,0 -19.855,-11.0078 -19.855,-26.8945 V 29.5313 h -12.039 v 65.3203"
         style="fill:#000000;fill-opacity:1;fill-rule:nonzero;stroke:none"
         id="path54" />
      <path
         d="m 706.961,42.3398 c 4.738,-3.0703 11.527,-4.6093 14.988,-4.6093 5.504,0 12.289,2.3086 12.289,9.3398 0,11.9102 -28.297,10.8985 -28.297,29.207 0,13.5743 10.114,20.0977 23.047,20.0977 5.641,0 10.246,-1.1445 14.992,-2.5508 l -1.031,-10.4961 c -2.687,1.6602 -9.859,3.3203 -12.679,3.3203 -6.149,0 -11.528,-2.5586 -11.528,-7.9414 0,-13.3086 28.309,-9.4804 28.309,-30.3593 C 747.051,34.3984 735.902,28 724.25,28 c -6.148,0 -12.418,0.6289 -17.926,3.5898 l 0.637,10.75"
         style="fill:#000000;fill-opacity:1;fill-rule:nonzero;stroke:none"
         id="path56" />
      <path
         d="M 798.082,85.1133 H 780.793 V 49.3906 c 0,-7.5625 4.609,-11.6601 10.117,-11.6601 3.715,0 6.406,1.1484 8.195,2.3086 v -10.25 C 796.418,29.0195 792.707,28 788.863,28 776.434,28 768.75,33.8906 768.75,46.9492 v 38.1641 h -14.723 v 9.7383 h 14.723 v 15.1054 l 12.043,3.848 V 94.8516 h 17.289 v -9.7383"
         style="fill:#000000;fill-opacity:1;fill-rule:nonzero;stroke:none"
         id="path58" />
      <path
         d="m 812.809,94.8516 h 12.035 V 29.5313 h -12.035 z m 12.808,14.5894 h -13.574 v 13.575 h 13.574 v -13.575"
         style="fill:#000000;fill-opacity:1;fill-rule:nonzero;stroke:none"
         id="path60" />
      <path
         d="M 881.133,85.1133 H 863.844 V 49.3906 c 0,-7.5625 4.609,-11.6601 10.117,-11.6601 3.711,0 6.402,1.1484 8.191,2.3086 v -10.25 C 879.461,29.0195 875.754,28 871.914,28 859.48,28 851.801,33.8906 851.801,46.9492 V 85.1133 H 837.07 v 9.7383 h 14.731 v 15.1054 l 12.043,3.848 V 94.8516 h 17.289 v -9.7383"
         style="fill:#000000;fill-opacity:1;fill-rule:nonzero;stroke:none"
         id="path62" />
      <path
         d="m 952.344,29.5313 h -11.672 v 10.3671 h -0.25 C 936.832,32.4805 928.133,28 919.043,28 902.133,28 894.57,38.4883 894.57,56.0391 v 38.8125 h 12.043 V 61.043 c 0,-15.2344 3.328,-22.6641 13.828,-23.3125 13.711,0 19.86,11.0078 19.86,26.8945 v 30.2266 h 12.043 V 29.5313"
         style="fill:#000000;fill-opacity:1;fill-rule:nonzero;stroke:none"
         id="path64" />
      <path
         d="M 1007.84,85.1133 H 990.563 V 49.3906 c 0,-7.5625 4.609,-11.6601 10.117,-11.6601 3.71,0 6.4,1.1484 8.19,2.3086 v -10.25 C 1006.18,29.0195 1002.47,28 998.633,28 c -12.43,0 -20.11,5.8906 -20.11,18.9492 v 38.1641 h -14.722 v 9.7383 h 14.722 v 15.1054 l 12.04,3.848 V 94.8516 h 17.277 v -9.7383"
         style="fill:#000000;fill-opacity:1;fill-rule:nonzero;stroke:none"
         id="path66" />
      <path
         d="m 1063.8,68.4727 c 0,9.9804 -5.89,18.1757 -16.25,18.1757 -11.79,0 -16.66,-9.7265 -17.56,-18.1757 z m 7.82,-36.2539 C 1066.99,30.5508 1061.77,28 1050.99,28 c -23.18,0 -33.81,14.0898 -33.81,35.3359 0,19.3477 12.17,33.0391 30.6,33.0391 21.78,0 28.83,-15.8711 28.83,-36.8867 h -46.62 c 0,-12.9297 10.11,-21.7578 21.51,-21.7578 7.93,0 17.18,4.0976 20.12,6.5273 v -12.039"
         style="fill:#000000;fill-opacity:1;fill-rule:nonzero;stroke:none"
         id="path68" />
      <path
         d="m 1157.28,37.7305 c 14.1,0 20.36,12.8008 20.36,24.4531 0,12.4219 -7.55,24.4648 -20.36,24.4648 -12.92,0 -20.48,-12.0429 -20.48,-24.4648 0,-11.6523 6.26,-24.4531 20.48,-24.4531 z m 0,58.6445 c 19.86,0 33.18,-14.3359 33.18,-34.1914 C 1190.46,43.4805 1176.88,28 1157.28,28 c -19.71,0 -33.29,15.4805 -33.29,34.1836 0,19.8555 13.32,34.1914 33.29,34.1914"
         style="fill:#000000;fill-opacity:1;fill-rule:nonzero;stroke:none"
         id="path70" />
      <path
         d="m 1212.88,85.1133 h -15.37 v 9.7383 h 15.37 v 6.0034 c 0,15.879 4.09,26.27 21.88,26.27 3.08,0 5.65,-0.391 8.07,-0.77 l -0.51,-9.738 c -1.4,0.508 -3.7,0.762 -5.75,0.762 -10.38,0 -11.65,-6.649 -11.65,-15.488 v -7.0394 h 17.28 v -9.7383 h -17.28 v -55.582 h -12.04 v 55.582"
         style="fill:#000000;fill-opacity:1;fill-rule:nonzero;stroke:none"
         id="path72" />
      <path
         d="m 1309.43,107.652 h -27.78 v 11.27 h 68.37 v -11.27 h -27.79 V 29.5313 h -12.8 v 78.1207"
         style="fill:#000000;fill-opacity:1;fill-rule:nonzero;stroke:none"
         id="path74" />
      <path
         d="m 1394.61,68.4727 c 0,9.9804 -5.87,18.1757 -16.25,18.1757 -11.79,0 -16.67,-9.7265 -17.55,-18.1757 z m 7.81,-36.2539 C 1397.82,30.5508 1392.58,28 1381.8,28 c -23.18,0 -33.79,14.0898 -33.79,35.3359 0,19.3477 12.15,33.0391 30.6,33.0391 21.78,0 28.8,-15.8711 28.8,-36.8867 h -46.6 c 0,-12.9297 10.13,-21.7578 21.5,-21.7578 7.95,0 17.17,4.0976 20.11,6.5273 v -12.039"
         style="fill:#000000;fill-opacity:1;fill-rule:nonzero;stroke:none"
         id="path76" />
      <path
         d="m 1465.57,83.8359 c -4.61,1.9141 -9.22,2.8125 -13.06,2.8125 -13.45,0 -21.01,-12.0429 -21.01,-24.4648 0,-11.6523 6.28,-24.4531 21.77,-24.4531 4.1,0 9.23,1.2773 12.95,3.7187 l 0.9,-10.7578 C 1462.13,28.3789 1456.35,28 1452,28 c -19.74,0 -33.31,15.4805 -33.31,34.1836 0,19.8555 13.34,34.1914 33.31,34.1914 4.85,0 11.14,-1.1445 14.59,-2.5508 l -1.02,-9.9883"
         style="fill:#000000;fill-opacity:1;fill-rule:nonzero;stroke:none"
         id="path78" />
      <path
         d="m 1479.9,125.582 h 12.05 V 85.4961 h 0.25 c 4.35,6.9141 11.91,10.8789 21.01,10.8789 16.9,0 24.46,-10.4883 24.46,-28.0391 V 29.5313 h -12.05 v 33.8046 c 0,15.2344 -3.32,22.668 -13.82,23.3125 -13.71,0 -19.85,-11.0078 -19.85,-26.8945 V 29.5313 h -12.05 v 96.0507"
         style="fill:#000000;fill-opacity:1;fill-rule:nonzero;stroke:none"
         id="path80" />
      <path
         d="M 1557.35,94.8516 H 1569 V 84.4805 h 0.26 c 3.58,7.4218 12.29,11.8945 21.37,11.8945 16.91,0 24.47,-10.4883 24.47,-28.0391 V 29.5313 h -12.03 v 33.8046 c 0,15.2344 -3.35,22.668 -13.84,23.3125 -13.71,0 -19.86,-11.0078 -19.86,-26.8945 V 29.5313 h -12.02 v 65.3203"
         style="fill:#000000;fill-opacity:1;fill-rule:nonzero;stroke:none"
         id="path82" />
      <path
         d="m 1663.97,37.7305 c 14.09,0 20.36,12.8008 20.36,24.4531 0,12.4219 -7.56,24.4648 -20.36,24.4648 -12.93,0 -20.49,-12.0429 -20.49,-24.4648 0,-11.6523 6.27,-24.4531 20.49,-24.4531 z m 0,58.6445 c 19.86,0 33.17,-14.3359 33.17,-34.1914 C 1697.14,43.4805 1683.57,28 1663.97,28 c -19.72,0 -33.29,15.4805 -33.29,34.1836 0,19.8555 13.31,34.1914 33.29,34.1914"
         style="fill:#000000;fill-opacity:1;fill-rule:nonzero;stroke:none"
         id="path84" />
      <path
         d="m 1713.85,29.5313 h 12.0391 v 96.0508 H 1713.85 Z"
         style="fill:#000000;fill-opacity:1;fill-rule:nonzero;stroke:none"
         id="path86" />
      <path
         d="m 1775.9,37.7305 c 14.08,0 20.36,12.8008 20.36,24.4531 0,12.4219 -7.56,24.4648 -20.36,24.4648 -12.94,0 -20.5,-12.0429 -20.5,-24.4648 0,-11.6523 6.28,-24.4531 20.5,-24.4531 z m 0,58.6445 c 19.85,0 33.17,-14.3359 33.17,-34.1914 C 1809.07,43.4805 1795.48,28 1775.9,28 c -19.72,0 -33.31,15.4805 -33.31,34.1836 0,19.8555 13.32,34.1914 33.31,34.1914"
         style="fill:#000000;fill-opacity:1;fill-rule:nonzero;stroke:none"
         id="path88" />
      <path
         d="m 1871.24,61.4219 c 0,13.5664 -6.29,25.2265 -19.09,25.2265 -12.16,0 -18.2,-13.1836 -18.2,-24.3281 0,-12.289 6.94,-23.0508 18.2,-23.0508 11.26,0 19.09,9.9883 19.09,22.1524 z m 12.02,-29.0821 c 0,-19.832 -10.24,-31.23824 -33.68,-31.23824 -6.92,0 -12.92,0.89844 -23.44,4.47657 l 1.29,11.15237 c 9.23,-4.2227 14.73,-5.8907 23.56,-5.8907 12.69,0 20.25,8.5704 20.25,22.3985 v 6.4219 h -0.28 c -5.11,-6.8086 -13.57,-10.1289 -21.89,-10.1289 -18.7,0 -27.92,15.2265 -27.92,32.1445 0,16.7773 9.49,34.6992 29.21,34.6992 11.51,0 17.92,-4.2187 21.5,-11.2617 h 0.26 v 9.7383 h 11.14 V 32.3398"
         style="fill:#000000;fill-opacity:1;fill-rule:nonzero;stroke:none"
         id="path90" />
      <path
         d="m 1899.2,11.8594 c 1.53,-0.5078 3.58,-1.0196 5.64,-1.0196 10.74,0 14.33,14.8399 14.33,16.129 0,1.4101 -1.53,4.7421 -2.31,6.9218 l -22.15,60.961 h 13.2 l 17.53,-54.0508 h 0.27 l 17.92,54.0508 h 12.16 l -24.06,-66.7305 c -4.49,-12.543 -9.23,-27.01954 -25.11,-27.01954 -3.84,0 -6.01,0.50782 -8.2,0.89844 l 0.78,9.8594"
         style="fill:#000000;fill-opacity:1;fill-rule:nonzero;stroke:none"
         id="path92" />
    </g>
  </g>
</svg>
